<svg xmlns="http://www.w3.org/2000/svg" width="1360" height="580" viewBox="0 0 680 290">
<defs><marker id="arrow" viewBox="0 0 10 10" refX="8" refY="5" markerWidth="6" markerHeight="6" orient="auto-start-reverse"><path d="M2 1L8 5L2 9" fill="none" stroke="#D85A30" stroke-width="1.5" stroke-linecap="round" stroke-linejoin="round"/></marker></defs>
<rect x="0" y="0" width="680" height="290" fill="#ffffff"/>
<rect x="50" y="70" width="170" height="64" rx="8" fill="#FAECE7" stroke="#993C1D" stroke-width="1"/>
<text x="135" y="97" text-anchor="middle" font-family="Helvetica,Arial,sans-serif" font-size="14" font-weight="500" fill="#712B13">Pick items &amp; date</text>
<text x="135" y="116" text-anchor="middle" font-family="Helvetica,Arial,sans-serif" font-size="12" fill="#993C1D">choose event date</text>
<rect x="255" y="70" width="170" height="64" rx="8" fill="#FAECE7" stroke="#993C1D" stroke-width="1"/>
<text x="340" y="97" text-anchor="middle" font-family="Helvetica,Arial,sans-serif" font-size="14" font-weight="500" fill="#712B13">See availability</text>
<text x="340" y="116" text-anchor="middle" font-family="Helvetica,Arial,sans-serif" font-size="12" fill="#993C1D">live stock counts</text>
<rect x="460" y="70" width="170" height="64" rx="8" fill="#FAECE7" stroke="#993C1D" stroke-width="1"/>
<text x="545" y="97" text-anchor="middle" font-family="Helvetica,Arial,sans-serif" font-size="14" font-weight="500" fill="#712B13">Request booking</text>
<text x="545" y="116" text-anchor="middle" font-family="Helvetica,Arial,sans-serif" font-size="12" fill="#993C1D">send us your list</text>
<rect x="460" y="200" width="170" height="64" rx="8" fill="#FAECE7" stroke="#993C1D" stroke-width="1"/>
<text x="545" y="227" text-anchor="middle" font-family="Helvetica,Arial,sans-serif" font-size="14" font-weight="500" fill="#712B13">Confirm &amp; deposit</text>
<text x="545" y="246" text-anchor="middle" font-family="Helvetica,Arial,sans-serif" font-size="12" fill="#993C1D">we hold your dates</text>
<rect x="255" y="200" width="170" height="64" rx="8" fill="#FAECE7" stroke="#993C1D" stroke-width="1"/>
<text x="340" y="227" text-anchor="middle" font-family="Helvetica,Arial,sans-serif" font-size="14" font-weight="500" fill="#712B13">Get your items</text>
<text x="340" y="246" text-anchor="middle" font-family="Helvetica,Arial,sans-serif" font-size="12" fill="#993C1D">delivery or pickup</text>
<rect x="50" y="200" width="170" height="64" rx="8" fill="#FAECE7" stroke="#993C1D" stroke-width="1"/>
<text x="135" y="227" text-anchor="middle" font-family="Helvetica,Arial,sans-serif" font-size="14" font-weight="500" fill="#712B13">Return items</text>
<text x="135" y="246" text-anchor="middle" font-family="Helvetica,Arial,sans-serif" font-size="12" fill="#993C1D">deposit refunded</text>
<line x1="222" y1="102" x2="253" y2="102" stroke="#D85A30" stroke-width="1.5" marker-end="url(#arrow)"/>
<line x1="427" y1="102" x2="458" y2="102" stroke="#D85A30" stroke-width="1.5" marker-end="url(#arrow)"/>
<line x1="545" y1="136" x2="545" y2="198" stroke="#D85A30" stroke-width="1.5" marker-end="url(#arrow)"/>
<line x1="458" y1="232" x2="427" y2="232" stroke="#D85A30" stroke-width="1.5" marker-end="url(#arrow)"/>
<line x1="253" y1="232" x2="222" y2="232" stroke="#D85A30" stroke-width="1.5" marker-end="url(#arrow)"/>
</svg>
