<svg xmlns="http://www.w3.org/2000/svg" width="1360" height="820" viewBox="0 0 680 410">
<defs>
<marker id="arrowGray" viewBox="0 0 10 10" refX="8" refY="5" markerWidth="6" markerHeight="6" orient="auto-start-reverse"><path d="M2 1L8 5L2 9" fill="none" stroke="#888780" stroke-width="1.5" stroke-linecap="round" stroke-linejoin="round"/></marker>
<marker id="arrowGreen" viewBox="0 0 10 10" refX="8" refY="5" markerWidth="6" markerHeight="6" orient="auto-start-reverse"><path d="M2 1L8 5L2 9" fill="none" stroke="#639922" stroke-width="1.5" stroke-linecap="round" stroke-linejoin="round"/></marker>
</defs>
<rect x="0" y="0" width="680" height="410" fill="#ffffff"/>
<rect x="60" y="45" width="560" height="58" rx="8" fill="#F1EFE8" stroke="#5F5E5A" stroke-width="1"/>
<text x="340" y="72" text-anchor="middle" font-family="Helvetica,Arial,sans-serif" font-size="14" font-weight="500" fill="#2C2C2A">Availability is worked out live</text>
<text x="340" y="90" text-anchor="middle" font-family="Helvetica,Arial,sans-serif" font-size="12" fill="#5F5E5A">total owned &#8722; items on hire for those dates</text>
<rect x="50" y="150" width="125" height="60" rx="8" fill="#EAF3DE" stroke="#3B6D11" stroke-width="1"/>
<text x="112" y="176" text-anchor="middle" font-family="Helvetica,Arial,sans-serif" font-size="14" font-weight="500" fill="#27500A">Available</text>
<text x="112" y="194" text-anchor="middle" font-family="Helvetica,Arial,sans-serif" font-size="12" fill="#3B6D11">in stock</text>
<rect x="195" y="150" width="125" height="60" rx="8" fill="#FAEEDA" stroke="#854F0B" stroke-width="1"/>
<text x="257" y="176" text-anchor="middle" font-family="Helvetica,Arial,sans-serif" font-size="14" font-weight="500" fill="#633806">Reserved</text>
<text x="257" y="194" text-anchor="middle" font-family="Helvetica,Arial,sans-serif" font-size="12" fill="#854F0B">deposit paid</text>
<rect x="340" y="150" width="125" height="60" rx="8" fill="#E6F1FB" stroke="#185FA5" stroke-width="1"/>
<text x="402" y="176" text-anchor="middle" font-family="Helvetica,Arial,sans-serif" font-size="14" font-weight="500" fill="#0C447C">On hire</text>
<text x="402" y="194" text-anchor="middle" font-family="Helvetica,Arial,sans-serif" font-size="12" fill="#185FA5">at the event</text>
<rect x="485" y="150" width="125" height="60" rx="8" fill="#EEEDFE" stroke="#534AB7" stroke-width="1"/>
<text x="547" y="176" text-anchor="middle" font-family="Helvetica,Arial,sans-serif" font-size="14" font-weight="500" fill="#3C3489">Returned</text>
<text x="547" y="194" text-anchor="middle" font-family="Helvetica,Arial,sans-serif" font-size="12" fill="#534AB7">back with us</text>
<rect x="420" y="250" width="160" height="56" rx="8" fill="#EEEDFE" stroke="#534AB7" stroke-width="1"/>
<text x="500" y="275" text-anchor="middle" font-family="Helvetica,Arial,sans-serif" font-size="14" font-weight="500" fill="#3C3489">Clean &amp; inspect</text>
<text x="500" y="292" text-anchor="middle" font-family="Helvetica,Arial,sans-serif" font-size="12" fill="#534AB7">wash &amp; restock</text>
<rect x="420" y="330" width="160" height="56" rx="8" fill="#FCEBEB" stroke="#A32D2D" stroke-width="1"/>
<text x="500" y="355" text-anchor="middle" font-family="Helvetica,Arial,sans-serif" font-size="14" font-weight="500" fill="#791F1F">Damaged / lost</text>
<text x="500" y="372" text-anchor="middle" font-family="Helvetica,Arial,sans-serif" font-size="12" fill="#A32D2D">removed from stock</text>
<line x1="177" y1="180" x2="192" y2="180" stroke="#888780" stroke-width="1.5" marker-end="url(#arrowGray)"/>
<line x1="322" y1="180" x2="337" y2="180" stroke="#888780" stroke-width="1.5" marker-end="url(#arrowGray)"/>
<line x1="467" y1="180" x2="482" y2="180" stroke="#888780" stroke-width="1.5" marker-end="url(#arrowGray)"/>
<line x1="547" y1="210" x2="512" y2="248" stroke="#888780" stroke-width="1.5" marker-end="url(#arrowGray)"/>
<line x1="500" y1="306" x2="500" y2="328" stroke="#888780" stroke-width="1.5" marker-end="url(#arrowGray)"/>
<path d="M420 282 C 250 320 112 320 112 213" fill="none" stroke="#639922" stroke-width="1.5" marker-end="url(#arrowGreen)"/>
</svg>
